<?xml version="1.0" encoding="UTF-8" standalone="no"?>
<!-- Created with Inkscape (http://www.inkscape.org/) -->

<svg
   xmlns:dc="http://purl.org/dc/elements/1.1/"
   xmlns:cc="http://creativecommons.org/ns#"
   xmlns:rdf="http://www.w3.org/1999/02/22-rdf-syntax-ns#"
   xmlns:svg="http://www.w3.org/2000/svg"
   xmlns="http://www.w3.org/2000/svg"
   xmlns:sodipodi="http://sodipodi.sourceforge.net/DTD/sodipodi-0.dtd"
   xmlns:inkscape="http://www.inkscape.org/namespaces/inkscape"
   width="891.76575mm"
   height="211.66667mm"
   viewBox="0 0 891.76574 211.66667"
   version="1.1"
   id="svg8"
   inkscape:version="0.92.4 5da689c313, 2019-01-14"
   sodipodi:docname="compgeolab.svg"
   inkscape:export-filename="compgeolab.png"
   inkscape:export-xdpi="96"
   inkscape:export-ydpi="96">
  <defs
     id="defs2">
    <clipPath
       clipPathUnits="userSpaceOnUse"
       id="clipPath846">
      <path
         style="fill:none;fill-opacity:1;fill-rule:nonzero;stroke:#ffffff;stroke-width:0.92391413;stroke-linecap:round;stroke-miterlimit:4;stroke-dasharray:none"
         d="m -598.05405,-154.24376 a 70.11293,70.11293 0 0 1 -70.11294,70.11291 70.11293,70.11293 0 0 1 -70.11293,-70.11291 70.11293,70.11293 0 0 1 70.11293,-70.11294 70.11293,70.11293 0 0 1 70.11294,70.11294 z"
         id="path848"
         inkscape:connector-curvature="0" />
    </clipPath>
  </defs>
  <sodipodi:namedview
     id="base"
     pagecolor="#ffffff"
     bordercolor="#666666"
     borderopacity="1.0"
     inkscape:pageopacity="0.0"
     inkscape:pageshadow="2"
     inkscape:zoom="0.12374369"
     inkscape:cx="1792.0177"
     inkscape:cy="-1405.3881"
     inkscape:document-units="mm"
     inkscape:current-layer="layer1"
     showgrid="false"
     inkscape:window-width="1704"
     inkscape:window-height="1918"
     inkscape:window-x="4937"
     inkscape:window-y="11"
     inkscape:window-maximized="0"
     fit-margin-top="0"
     fit-margin-left="0"
     fit-margin-right="0"
     fit-margin-bottom="0" />
  <metadata
     id="metadata5">
    <rdf:RDF>
      <cc:Work
         rdf:about="">
        <dc:format>image/svg+xml</dc:format>
        <dc:type
           rdf:resource="http://purl.org/dc/dcmitype/StillImage" />
        <dc:title></dc:title>
      </cc:Work>
    </rdf:RDF>
  </metadata>
  <g
     inkscape:label="Layer 1"
     inkscape:groupmode="layer"
     id="layer1"
     transform="translate(774.00032,260.0771)">
    <g
       id="g900"
       transform="translate(0,3.8412097e-6)">
      <g
         style="fill:#f9f9f9"
         transform="matrix(1.0902873,0,0,1.090164,-363.43028,53.897383)"
         id="g837">
        <path
           sodipodi:nodetypes="cscsccccscccsccscscccccccccccccssccssccccccccccscscsccscscscccccscscccsccsccccsscssssscscc"
           inkscape:connector-curvature="0"
           id="path839"
           d="m -257.55923,-94.441592 c -1.38614,-0.701252 -1.65704,-1.059286 -6.42739,-8.494888 -3.92235,-6.11381 -4.61973,-6.96071 -6.50411,-7.89863 -1.18275,-0.5887 -1.46512,-0.60832 -9.91214,-0.68867 l -8.69471,-0.0827 -1.36276,0.66674 c -0.74952,0.3667 -1.73434,1.05877 -2.18848,1.53792 -0.45415,0.47915 -2.68642,3.62992 -4.96062,7.00172 -2.27419,3.371807 -4.49615,6.434544 -4.93769,6.806072 -1.11168,0.935408 -2.75288,1.343554 -4.08603,1.016132 -0.58209,-0.142981 -6.11849,-2.421996 -12.30313,-5.064492 -9.72156,-4.153722 -11.37672,-4.942712 -12.21876,-5.824442 -1.81997,-1.90578 -1.81573,-2.16177 0.18986,-11.46252 1.88622,-8.74714 1.92482,-9.22697 0.9244,-11.4886 -0.76622,-1.73216 -11.38391,-12.6174 -13.10487,-13.43508 -2.26337,-1.0754 -2.69377,-1.06388 -9.525,0.25492 -10.13141,1.95592 -9.95223,1.93108 -11.35623,1.57459 -2.43966,-0.61946 -2.5554,-0.82709 -7.85131,-14.08591 -4.4184,-11.06189 -4.79003,-12.11951 -4.67588,-13.3074 0.18929,-1.97001 0.9974,-2.87892 4.69671,-5.28254 1.82144,-1.18349 4.94336,-3.2073 6.93759,-4.49738 5.98716,-3.8731 6.03245,-3.98818 6.02883,-15.32098 -0.003,-7.97829 -0.0112,-8.10584 -0.63457,-9.41083 -0.34759,-0.7276 -0.9413,-1.64467 -1.31936,-2.03792 -0.37805,-0.39325 -3.59741,-2.68675 -7.15413,-5.09666 -3.55672,-2.4099 -6.71191,-4.6933 -7.01153,-5.07422 -0.70406,-0.89506 -1.16408,-2.62248 -0.98774,-3.7091 0.0764,-0.47067 1.52514,-4.04685 3.21948,-7.94706 1.69433,-3.90021 3.29946,-7.62707 3.56696,-8.28191 2.83213,-6.93319 3.57978,-8.37899 4.69456,-9.07827 1.49954,-0.94063 2.77332,-1.04734 5.49662,-0.46048 14.16363,3.05222 14.6356,3.10694 17.06562,1.97887 2.09652,-0.97325 12.67267,-11.49218 13.50872,-13.43563 0.83949,-1.95145 0.72815,-3.39538 -0.9023,-11.70197 -1.58882,-8.09441 -1.60294,-8.51315 -0.35099,-10.40498 0.36406,-0.55014 1.05951,-1.18786 1.54544,-1.41715 0.48593,-0.22929 5.40788,-2.21734 10.93768,-4.41789 5.52979,-2.20055 10.47088,-4.19785 10.9802,-4.43846 0.50933,-0.24061 1.64042,-0.47865 2.51354,-0.52898 2.73514,-0.15767 3.08288,0.17365 7.71027,7.34634 5.237,8.11757 5.20544,8.07396 6.36994,8.8023 1.92289,1.20267 2.50882,1.28062 10.79107,1.43559 9.12721,0.17079 10.07211,0.0363 12.00739,-1.70942 0.60723,-0.54775 3.03544,-3.84066 5.39603,-7.31757 2.41396,-3.55554 4.72789,-6.67412 5.28822,-7.12716 0.79595,-0.64355 1.30131,-0.8247 2.51354,-0.90099 1.46772,-0.0924 1.90199,0.0697 13.29125,4.96084 6.47568,2.78098 12.05755,5.3168 12.40417,5.63515 0.80727,0.74143 1.60565,2.46926 1.61228,3.48924 0.003,0.43656 -0.70893,4.06082 -1.58169,8.05391 -0.97483,4.46008 -1.58585,7.87855 -1.58426,8.86354 0.004,2.77411 0.54856,3.55182 7.16627,10.24339 5.2187,5.27695 6.08404,6.04467 7.23192,6.41615 0.71715,0.23208 1.78871,0.42372 2.38125,0.42587 0.59254,0.002 4.58969,-0.66773 8.88256,-1.48862 7.05478,-1.34903 7.91536,-1.46235 8.95094,-1.17861 2.38928,0.65463 2.51082,0.87333 7.72139,13.89309 5.16146,12.89707 5.2557,13.24152 4.21238,15.39674 -0.59149,1.22185 -0.71312,1.31057 -9.37534,6.83857 -5.17565,3.30297 -5.99607,3.99688 -6.89295,5.83004 -0.638,1.30402 -0.65638,1.51833 -0.81737,9.52831 -0.1813,9.02123 -0.12057,9.56662 1.29777,11.65505 0.70068,1.0317 2.10299,2.10605 7.71612,5.9115 6.01795,4.07989 6.93525,4.79375 7.47448,5.81674 1.15219,2.18585 1.0953,2.38395 -4.32509,15.06163 -2.71687,6.35444 -5.16768,11.88364 -5.44625,12.28712 -0.52322,0.75784 -1.90169,1.57395 -3.17582,1.88022 -0.66059,0.15879 -2.69405,-0.23936 -14.88089,-2.91365 -2.39174,-0.52484 -4.03062,-0.35825 -5.82807,0.59243 -1.81472,0.95982 -12.48988,11.4335 -13.22442,12.97484 -0.98751,2.07215 -0.96077,2.72454 0.3943,9.61902 2.13267,10.85085 2.07303,10.26901 1.22928,11.99359 -0.44163,0.90265 -1.0485,1.67456 -1.5677,1.99404 -1.65354,1.01746 -24.13639,9.82487 -25.08016,9.82487 -0.50741,0 -1.45209,-0.267891 -2.09929,-0.595312 z m -12.82602,-26.521438 c 10.70726,-1.41499 21.54271,-5.51618 30.42708,-11.51659 7.91785,-5.34761 15.32909,-12.99612 20.37782,-21.0302 2.1427,-3.40969 5.15454,-9.59624 6.45274,-13.25441 3.2528,-9.16598 4.45185,-16.67514 4.17763,-26.16258 -0.31014,-10.72977 -2.46838,-19.46468 -7.19259,-29.11009 -7.98791,-16.3089 -21.13905,-28.37527 -38.04686,-34.90857 -8.72162,-3.3701 -17.26833,-4.81923 -26.91144,-4.56294 -7.82507,0.20797 -13.62124,1.19842 -20.60025,3.52018 -25.43385,8.46126 -43.58279,30.09014 -47.70607,56.85341 -0.68018,4.41491 -0.81612,13.90721 -0.26144,18.25625 2.05393,16.10432 9.07218,30.57981 20.27556,41.81932 11.73753,11.77539 27.24218,18.97212 44.16691,20.50076 3.36832,0.30423 11.06529,0.0944 14.84091,-0.40454 z"
           style="fill:#f9f9f9;stroke-width:0.26458332" />
      </g>
      <g
         transform="translate(0,3.4914941e-6)"
         clip-path="url(#clipPath846)"
         id="g839">
        <path
           style="fill:#d40000;fill-opacity:1;fill-rule:nonzero;stroke:#d40000;stroke-width:2.20258832;stroke-linecap:round;stroke-miterlimit:4;stroke-dasharray:none"
           d="m -678.24035,-78.207928 c -12.2251,-1.780097 -24.59148,-6.696942 -34.5737,-13.746414 -6.10833,-4.313712 -14.55441,-13.127898 -18.98921,-19.816828 -3.68344,-5.55569 -7.93571,-14.12071 -8.83433,-17.79434 -0.36694,-1.50008 -0.287,-1.58408 1.27389,-1.33899 0.91595,0.14383 3.50118,0.4027 5.74497,0.57527 4.70178,0.36162 12.3037,2.36116 17.77544,4.67548 5.6265,2.37977 14.55043,7.66326 27.10025,16.04489 13.32325,8.89818 21.67837,13.786522 29.32847,17.159219 6.29982,2.777402 14.92095,5.727197 20.20962,6.914906 l 3.49683,0.785302 -4.66243,1.798018 c -11.99414,4.625449 -26.33987,6.422362 -37.8698,4.743487 z"
           id="path971"
           inkscape:connector-curvature="0" />
        <path
           style="fill:#ff5555;fill-opacity:1;fill-rule:nonzero;stroke:#ff5555;stroke-width:2.20258832;stroke-linecap:round;stroke-miterlimit:4;stroke-dasharray:none"
           d="m -639.78775,-87.148206 c -10.65494,-2.791468 -20.93209,-6.992583 -30.28199,-12.378721 -2.57735,-1.484713 -10.84919,-6.679773 -18.38191,-11.544583 -7.53269,-4.8648 -15.81034,-10.06059 -18.39476,-11.54618 -9.07197,-5.21486 -17.87772,-8.0646 -28.77604,-9.31259 l -6.08335,-0.69662 -1.04093,-4.07915 c -1.31918,-5.1694 -2.55678,-16.52451 -1.87391,-17.193 0.28132,-0.27539 3.26521,-0.8034 6.6309,-1.17336 13.01631,-1.43074 25.78284,1.37501 38.98279,8.56741 2.68887,1.46513 10.03218,6.08244 16.31842,10.26068 19.3279,12.84658 28.50751,17.96766 39.69537,22.14504 9.79313,3.6566 24.66278,6.82136 32.05023,6.82136 1.60482,0 2.91783,0.21513 2.91783,0.47807 0,0.96725 -9.74905,10.469398 -13.98722,13.632976 -4.4817,3.345364 -11.18047,7.472633 -12.04549,7.421504 -0.2666,-0.01572 -2.84508,-0.647033 -5.72994,-1.402836 z"
           id="path973"
           inkscape:connector-curvature="0" />
        <path
           style="fill:#ffaaaa;fill-opacity:1;fill-rule:nonzero;stroke:#ffaaaa;stroke-width:2.20258832;stroke-linecap:round;stroke-miterlimit:4;stroke-dasharray:none"
           d="m -613.80076,-108.77592 c -12.21797,-1.4014 -24.74971,-4.70331 -34.99902,-9.22167 -7.52113,-3.31565 -15.57249,-8.03107 -32.59328,-19.08881 -7.88899,-5.12516 -17.22846,-10.73217 -20.7544,-12.46004 -12.9364,-6.33938 -26.45538,-8.60942 -38.58983,-6.47981 l -4.20456,0.7379 0.29046,-3.52902 c 0.55441,-6.73618 0.83478,-8.63426 2.02271,-13.6936 l 1.19421,-5.08605 3.90787,-0.731 c 6.10228,-1.14148 14.49652,-1.4245 20.09856,-0.67766 12.71927,1.69569 23.40709,6.51055 43.52624,19.60851 7.20107,4.68804 15.55308,9.97146 18.55999,11.74094 16.68426,9.81809 33.88578,15.41497 52.69417,17.14517 l 7.35993,0.67704 -1.11073,2.81763 c -1.80009,4.56633 -5.16287,11.00471 -7.9506,15.22227 -1.42999,2.16341 -2.64538,3.89915 -2.70091,3.85721 -0.0555,-0.042 -3.0934,-0.4195 -6.75081,-0.83901 z"
           id="path975"
           inkscape:connector-curvature="0" />
        <path
           style="fill:#aaccff;fill-opacity:1;fill-rule:nonzero;stroke:#aaccff;stroke-width:2.20258832;stroke-linecap:round;stroke-miterlimit:4;stroke-dasharray:none"
           d="m -604.52827,-132.08678 c -14.44938,-1.70687 -26.8886,-5.27909 -39.55814,-11.36004 -8.31344,-3.99016 -10.34091,-5.17333 -25.57246,-14.92325 -20.633,-13.20751 -30.20914,-18.0781 -40.65915,-20.68002 -4.16715,-1.03756 -6.95618,-1.30907 -13.6845,-1.33213 -4.64783,-0.0159 -10.22087,0.18858 -12.38453,0.45446 -2.96171,0.36397 -4.55205,0.97821 -4.55205,0.44565 0,-1.14403 5.74015,-12.29477 8.08006,-15.93886 2.50896,-3.90738 3.12886,-4.1656 12.43066,-5.17804 4.72093,-0.51383 7.64949,-0.51101 12.29654,0.0118 13.96377,1.57109 22.57575,5.44914 44.74066,20.14708 6.89162,4.56996 15.30796,9.92493 18.70301,11.89993 14.90615,8.67143 32.20422,14.23997 48.4648,15.60167 l 4.51672,0.37824 v 3.39024 c 0,2.79261 -1.20016,10.09417 -2.74311,16.68879 -0.3579,1.5296 -0.44139,1.53287 -10.07851,0.39444 z"
           id="path977"
           inkscape:connector-curvature="0"
           sodipodi:nodetypes="ccsscsscscscscsccc" />
        <path
           style="fill:#2a7fff;fill-opacity:1;fill-rule:nonzero;stroke:#2a7fff;stroke-width:2.20258832;stroke-linecap:round;stroke-miterlimit:4;stroke-dasharray:none"
           d="m -598.70027,-154.54257 c -11.98214,-1.35593 -26.07448,-5.57925 -37.59068,-11.26552 -4.16701,-2.05752 -12.55935,-6.94961 -18.64962,-10.87129 -19.67629,-12.67008 -22.62972,-14.47934 -28.88157,-17.69276 -11.64795,-5.98697 -21.48743,-8.26188 -33.18675,-7.67283 -3.68621,0.18559 -7.86375,0.51535 -9.2834,0.73278 l -2.58119,0.39533 1.2803,-1.79781 c 2.3247,-3.26441 9.82059,-10.30354 14.73946,-13.84138 l 4.84004,-3.48113 7.88691,0.04 c 9.04059,0.0458 14.80158,1.20308 23.20092,4.66071 6.74133,2.7751 11.94438,5.81164 26.93909,15.7218 21.52718,14.22757 31.81337,19.44713 46.04129,23.36295 4.00676,1.10275 7.94065,2.19665 8.74202,2.4309 1.21773,0.35595 1.57754,0.99816 2.19112,3.91061 0.40377,1.91659 0.90202,6.3037 1.10721,9.74912 l 0.37308,6.2644 -1.3986,-0.0756 c -0.76923,-0.0416 -3.36557,-0.29819 -5.76963,-0.57023 z"
           id="path979"
           inkscape:connector-curvature="0" />
        <path
           style="fill:#0044aa;fill-opacity:1;fill-rule:nonzero;stroke:#0044aa;stroke-width:2.20258832;stroke-linecap:round;stroke-miterlimit:4;stroke-dasharray:none"
           d="m -603.94547,-177.71003 c -13.52546,-4.05363 -22.24574,-8.31016 -38.75628,-18.91768 -26.5969,-17.08768 -29.5465,-18.74023 -39.04766,-21.87684 -5.4004,-1.78282 -12.87868,-2.94669 -19.52386,-3.03857 l -7.30094,-0.22432 7.76067,-1.84146 c 6.40864,-1.52064 13.94191,-5.33385 20.17316,-6.3444 6.86667,-1.11359 18.40589,-1.0975 25.39238,0.0354 23.30922,3.77971 44.45885,19.39028 55.23051,40.76569 2.57051,5.10098 6.53013,12.28349 6.53013,13.43389 0,0.91936 -2.7489,0.31878 -10.45811,-1.9917 z"
           id="path981"
           inkscape:connector-curvature="0"
           sodipodi:nodetypes="sscscssscss" />
      </g>
    </g>
    <g
       id="g889"
       transform="matrix(1.1104502,0,0,1.1104502,72.46816,12.055983)">
      <g
         aria-label="COMPUTER-ORIENTED
"
         style="font-style:normal;font-variant:normal;font-weight:normal;font-stretch:normal;font-size:65.06632996px;line-height:1.25;font-family:ABeeZee;-inkscape-font-specification:ABeeZee;letter-spacing:0px;word-spacing:0px;fill:#f9f9f9;fill-opacity:1;stroke:none;stroke-width:0.4879975"
         id="text826">
        <path
           d="m -519.46899,-172.20438 q -6.05116,0 -10.67087,-2.86292 -4.61971,-2.92799 -7.22237,-8.26342 -2.60265,-5.40051 -2.60265,-12.55781 0,-7.09223 2.60265,-12.49273 2.66772,-5.40051 7.28743,-8.26343 4.68478,-2.92798 10.54075,-2.92798 5.4005,0 10.02021,2.01706 l -0.78079,6.63676 q -2.08213,-1.04106 -4.03412,-1.56159 -1.88692,-0.52053 -4.09918,-0.52053 -6.63676,0 -10.34554,4.74984 -3.64372,4.68478 -3.64372,12.3626 0,7.67783 3.64372,12.42767 3.70878,4.68478 10.34554,4.68478 4.03412,0 8.1333,-1.95199 l 0.78079,6.5717 q -4.22931,1.95199 -9.95515,1.95199 z"
           style="font-style:normal;font-variant:normal;font-weight:500;font-stretch:condensed;font-family:'Cabin Condensed';-inkscape-font-specification:'Cabin Condensed,  Medium Condensed';fill:#f9f9f9;fill-opacity:1;stroke-width:0.4879975"
           id="path902" />
        <path
           d="m -487.39143,-172.20438 q -5.59571,0 -10.02022,-2.92799 -4.35944,-2.92798 -6.83196,-8.26342 -2.47252,-5.40051 -2.47252,-12.49274 0,-7.09223 2.47252,-12.42767 2.47252,-5.4005 6.83196,-8.32849 4.42451,-2.92798 10.02022,-2.92798 5.5957,0 9.95515,2.92798 4.35944,2.92799 6.83196,8.32849 2.47252,5.33544 2.47252,12.42767 0,7.09223 -2.47252,12.49274 -2.47252,5.33544 -6.83196,8.26342 -4.35945,2.92799 -9.95515,2.92799 z m 0,-6.83197 q 5.7909,0 8.91409,-4.68477 3.12318,-4.68478 3.12318,-12.16741 0,-7.48262 -3.12318,-12.1674 -3.12319,-4.68478 -8.91409,-4.68478 -5.7909,0 -8.91409,4.68478 -3.12318,4.68478 -3.12318,12.1674 0,7.48263 3.12318,12.16741 3.12319,4.68477 8.91409,4.68477 z"
           style="font-style:normal;font-variant:normal;font-weight:500;font-stretch:condensed;font-family:'Cabin Condensed';-inkscape-font-specification:'Cabin Condensed,  Medium Condensed';fill:#f9f9f9;fill-opacity:1;stroke-width:0.4879975"
           id="path904" />
        <path
           d="m -429.54751,-173.11531 -3.18825,-31.23184 -10.34555,21.92735 -10.34554,-21.92735 -3.25332,31.23184 h -7.1573 l 5.27038,-45.54643 h 5.66077 l 9.82501,21.92735 9.75995,-21.92735 h 5.66077 l 5.27038,45.54643 z"
           style="font-style:normal;font-variant:normal;font-weight:500;font-stretch:condensed;font-family:'Cabin Condensed';-inkscape-font-specification:'Cabin Condensed,  Medium Condensed';fill:#f9f9f9;fill-opacity:1;stroke-width:0.4879975"
           id="path906" />
        <path
           d="m -415.75361,-218.66174 h 12.36261 q 7.15729,0 11.19141,3.83891 4.03411,3.77385 4.03411,11.06128 0,7.35249 -4.03411,11.19141 -4.03412,3.77384 -11.19141,3.77384 h -5.53064 v 15.68099 h -6.83197 z m 11.77701,23.74921 q 4.42451,0 6.5717,-2.14719 2.14719,-2.21226 2.14719,-6.70183 0,-8.84902 -8.71889,-8.84902 h -4.94504 v 17.69804 z"
           style="font-style:normal;font-variant:normal;font-weight:500;font-stretch:condensed;font-family:'Cabin Condensed';-inkscape-font-specification:'Cabin Condensed,  Medium Condensed';fill:#f9f9f9;fill-opacity:1;stroke-width:0.4879975"
           id="path908" />
        <path
           d="m -366.82375,-172.20438 q -8.19836,0 -12.23247,-4.87998 -4.03411,-4.94504 -4.03411,-13.85913 v -27.71825 h 6.83196 v 25.83133 q 0,6.83197 1.88693,10.47568 1.95199,3.57865 7.54769,3.57865 3.83891,0 5.92104,-1.75679 2.08212,-1.82186 2.79785,-4.81491 0.71573,-3.05812 0.71573,-7.48263 v -25.83133 h 6.83196 v 27.71825 q 0,8.91409 -4.03411,13.85913 -4.03411,4.87998 -12.23247,4.87998 z"
           style="font-style:normal;font-variant:normal;font-weight:500;font-stretch:condensed;font-family:'Cabin Condensed';-inkscape-font-specification:'Cabin Condensed,  Medium Condensed';fill:#f9f9f9;fill-opacity:1;stroke-width:0.4879975"
           id="path910" />
        <path
           d="m -334.61605,-212.41537 h -11.19141 v -6.24637 h 29.14972 v 6.24637 h -11.19141 v 39.30006 h -6.7669 z"
           style="font-style:normal;font-variant:normal;font-weight:500;font-stretch:condensed;font-family:'Cabin Condensed';-inkscape-font-specification:'Cabin Condensed,  Medium Condensed';fill:#f9f9f9;fill-opacity:1;stroke-width:0.4879975"
           id="path912" />
        <path
           d="m -311.45243,-218.66174 h 24.9204 v 6.24637 h -18.08844 v 12.3626 h 14.1194 v 6.24637 h -14.1194 v 14.44472 h 18.60897 v 6.24637 h -25.44093 z"
           style="font-style:normal;font-variant:normal;font-weight:500;font-stretch:condensed;font-family:'Cabin Condensed';-inkscape-font-specification:'Cabin Condensed,  Medium Condensed';fill:#f9f9f9;fill-opacity:1;stroke-width:0.4879975"
           id="path914" />
        <path
           d="m -279.70018,-218.66174 h 12.3626 q 7.15729,0 11.19141,3.51358 4.03411,3.51358 4.03411,10.47568 0,4.03411 -1.82186,7.22236 -1.75679,3.18825 -4.94504,4.94504 l 8.91409,19.38977 h -7.87303 l -7.80796,-17.43778 q -0.3904,0.0651 -1.49652,0.0651 h -5.72584 v 17.37271 h -6.83196 z m 11.777,22.12255 q 4.42451,0 6.5717,-1.95199 2.14719,-2.01706 2.14719,-6.05117 0,-4.09918 -2.14719,-6.05117 -2.14719,-2.01705 -6.5717,-2.01705 h -4.94504 v 16.07138 z"
           style="font-style:normal;font-variant:normal;font-weight:500;font-stretch:condensed;font-family:'Cabin Condensed';-inkscape-font-specification:'Cabin Condensed,  Medium Condensed';fill:#f9f9f9;fill-opacity:1;stroke-width:0.4879975"
           id="path916" />
        <path
           d="m -246.3212,-196.27892 h 17.37271 v 5.85597 h -17.37271 z"
           style="font-style:normal;font-variant:normal;font-weight:500;font-stretch:condensed;font-family:'Cabin Condensed';-inkscape-font-specification:'Cabin Condensed,  Medium Condensed';fill:#f9f9f9;fill-opacity:1;stroke-width:0.4879975"
           id="path918" />
        <path
           d="m -204.93901,-172.20438 q -5.5957,0 -10.02021,-2.92799 -4.35945,-2.92798 -6.83197,-8.26342 -2.47252,-5.40051 -2.47252,-12.49274 0,-7.09223 2.47252,-12.42767 2.47252,-5.4005 6.83197,-8.32849 4.42451,-2.92798 10.02021,-2.92798 5.59571,0 9.95515,2.92798 4.35944,2.92799 6.83196,8.32849 2.47253,5.33544 2.47253,12.42767 0,7.09223 -2.47253,12.49274 -2.47252,5.33544 -6.83196,8.26342 -4.35944,2.92799 -9.95515,2.92799 z m 0,-6.83197 q 5.79091,0 8.91409,-4.68477 3.12318,-4.68478 3.12318,-12.16741 0,-7.48262 -3.12318,-12.1674 -3.12318,-4.68478 -8.91409,-4.68478 -5.7909,0 -8.91409,4.68478 -3.12318,4.68478 -3.12318,12.1674 0,7.48263 3.12318,12.16741 3.12319,4.68477 8.91409,4.68477 z"
           style="font-style:normal;font-variant:normal;font-weight:500;font-stretch:condensed;font-family:'Cabin Condensed';-inkscape-font-specification:'Cabin Condensed,  Medium Condensed';fill:#f9f9f9;fill-opacity:1;stroke-width:0.4879975"
           id="path920" />
        <path
           d="m -179.30288,-218.66174 h 12.36261 q 7.15729,0 11.19141,3.51358 4.03411,3.51358 4.03411,10.47568 0,4.03411 -1.82186,7.22236 -1.75679,3.18825 -4.94504,4.94504 l 8.91409,19.38977 h -7.87303 l -7.80796,-17.43778 q -0.3904,0.0651 -1.49652,0.0651 h -5.72584 v 17.37271 h -6.83197 z m 11.77701,22.12255 q 4.42451,0 6.5717,-1.95199 2.14719,-2.01706 2.14719,-6.05117 0,-4.09918 -2.14719,-6.05117 -2.14719,-2.01705 -6.5717,-2.01705 h -4.94504 v 16.07138 z"
           style="font-style:normal;font-variant:normal;font-weight:500;font-stretch:condensed;font-family:'Cabin Condensed';-inkscape-font-specification:'Cabin Condensed,  Medium Condensed';fill:#f9f9f9;fill-opacity:1;stroke-width:0.4879975"
           id="path922" />
        <path
           d="m -144.23217,-218.66174 h 6.83197 v 45.54643 h -6.83197 z"
           style="font-style:normal;font-variant:normal;font-weight:500;font-stretch:condensed;font-family:'Cabin Condensed';-inkscape-font-specification:'Cabin Condensed,  Medium Condensed';fill:#f9f9f9;fill-opacity:1;stroke-width:0.4879975"
           id="path924" />
        <path
           d="m -128.68136,-218.66174 h 24.9204 v 6.24637 h -18.08844 v 12.3626 h 14.1194 v 6.24637 h -14.1194 v 14.44472 h 18.60897 v 6.24637 h -25.44093 z"
           style="font-style:normal;font-variant:normal;font-weight:500;font-stretch:condensed;font-family:'Cabin Condensed';-inkscape-font-specification:'Cabin Condensed,  Medium Condensed';fill:#f9f9f9;fill-opacity:1;stroke-width:0.4879975"
           id="path926" />
        <path
           d="m -97.05926,-218.66174 h 7.352495 l 16.722047,31.16677 v -31.16677 h 6.766898 v 45.54643 h -6.116235 l -17.89324,-33.0537 v 33.0537 h -6.831965 z"
           style="font-style:normal;font-variant:normal;font-weight:500;font-stretch:condensed;font-family:'Cabin Condensed';-inkscape-font-specification:'Cabin Condensed,  Medium Condensed';fill:#f9f9f9;fill-opacity:1;stroke-width:0.4879975"
           id="path928" />
        <path
           d="m -49.821155,-212.41537 h -11.191409 v -6.24637 h 29.149716 v 6.24637 h -11.191409 v 39.30006 h -6.766898 z"
           style="font-style:normal;font-variant:normal;font-weight:500;font-stretch:condensed;font-family:'Cabin Condensed';-inkscape-font-specification:'Cabin Condensed,  Medium Condensed';fill:#f9f9f9;fill-opacity:1;stroke-width:0.4879975"
           id="path930" />
        <path
           d="m -26.657557,-218.66174 h 24.9204043 v 6.24637 H -19.825592 v 12.3626 h 14.1193932 v 6.24637 H -19.825592 v 14.44472 h 18.60897 v 6.24637 h -25.440935 z"
           style="font-style:normal;font-variant:normal;font-weight:500;font-stretch:condensed;font-family:'Cabin Condensed';-inkscape-font-specification:'Cabin Condensed,  Medium Condensed';fill:#f9f9f9;fill-opacity:1;stroke-width:0.4879975"
           id="path932" />
        <path
           d="M 4.9645438,-218.66174 H 19.604468 q 5.595704,0 9.955149,2.73278 4.42451,2.73279 6.89703,7.87303 2.472521,5.14024 2.472521,12.1674 0,7.02717 -2.472521,12.16741 -2.47252,5.14024 -6.89703,7.87302 -4.359445,2.73279 -9.955149,2.73279 H 4.9645438 Z m 14.0543272,39.30006 q 6.051169,0 9.174353,-4.29438 3.18825,-4.35944 3.18825,-12.23247 0,-7.87302 -3.18825,-12.1674 -3.123184,-4.35944 -9.174353,-4.35944 h -7.222363 v 33.05369 z"
           style="font-style:normal;font-variant:normal;font-weight:500;font-stretch:condensed;font-family:'Cabin Condensed';-inkscape-font-specification:'Cabin Condensed,  Medium Condensed';fill:#f9f9f9;fill-opacity:1;stroke-width:0.4879975"
           id="path934" />
      </g>
      <g
         aria-label="GEOSCIENCE LAB"
         style="font-style:normal;font-variant:normal;font-weight:normal;font-stretch:normal;font-size:85.54676056px;line-height:1.25;font-family:ABeeZee;-inkscape-font-specification:ABeeZee;letter-spacing:0px;word-spacing:0px;fill:#f9f9f9;fill-opacity:1;stroke:none;stroke-width:0.64160073"
         id="text832">
        <path
           d="m -511.4114,-79.945046 q -7.95585,0 -14.02967,-3.849604 -5.98828,-3.849604 -9.3246,-10.864438 -3.33632,-7.100382 -3.33632,-16.424982 0,-9.41014 3.50741,-16.42497 3.50742,-7.10039 9.66679,-10.86444 6.15936,-3.84961 13.94412,-3.84961 7.61366,0 14.02967,2.82305 l -1.19766,10.4367 q -3.33632,-1.36875 -5.90272,-2.05312 -2.48086,-0.68438 -5.56054,-0.68438 -8.0414,0 -12.57538,5.475 -4.44843,5.47499 -4.44843,15.14177 0,9.83788 4.10625,15.227327 4.19179,5.389446 12.06209,5.389446 2.65195,0 4.79062,-0.769921 v -10.351162 h -6.84374 v -9.58123 h 17.28044 v 26.86168 q -2.90859,2.053122 -7.10038,3.16523 -4.19179,1.197654 -9.06795,1.197654 z"
           style="font-style:normal;font-variant:normal;font-weight:bold;font-stretch:condensed;font-family:'Cabin Condensed';-inkscape-font-specification:'Cabin Condensed,  Bold Condensed';fill:#f9f9f9;fill-opacity:1;stroke-width:0.64160073"
           id="path937" />
        <path
           d="m -486.17518,-141.02543 h 33.61987 v 9.58123 h -23.18317 v 14.11522 h 17.87927 v 9.58124 h -17.87927 v 17.023803 h 23.95309 v 9.581237 h -34.38979 z"
           style="font-style:normal;font-variant:normal;font-weight:bold;font-stretch:condensed;font-family:'Cabin Condensed';-inkscape-font-specification:'Cabin Condensed,  Bold Condensed';fill:#f9f9f9;fill-opacity:1;stroke-width:0.64160073"
           id="path939" />
        <path
           d="m -422.35742,-79.945046 q -7.35702,0 -13.1742,-3.849604 -5.73163,-3.935151 -8.98241,-10.949985 -3.25077,-7.100385 -3.25077,-16.339435 0,-9.23905 3.25077,-16.25388 3.25078,-7.10038 8.98241,-10.94999 5.81718,-3.93515 13.1742,-3.93515 7.35702,0 13.08866,3.84961 5.81718,3.8496 9.06795,10.94998 3.25078,7.10038 3.25078,16.33943 0,9.23905 -3.25078,16.339435 -3.25077,7.100381 -9.06795,10.949985 -5.73164,3.849604 -13.08866,3.849604 z m 0,-10.522251 q 6.92929,0 10.6078,-5.646086 3.67851,-5.646087 3.67851,-14.970687 0,-9.32459 -3.67851,-14.97068 -3.67851,-5.64609 -10.6078,-5.64609 -6.92928,0 -10.60779,5.64609 -3.67852,5.64609 -3.67852,14.97068 0,9.3246 3.67852,14.970687 3.67851,5.646086 10.60779,5.646086 z"
           style="font-style:normal;font-variant:normal;font-weight:bold;font-stretch:condensed;font-family:'Cabin Condensed';-inkscape-font-specification:'Cabin Condensed,  Bold Condensed';fill:#f9f9f9;fill-opacity:1;stroke-width:0.64160073"
           id="path941" />
        <path
           d="m -373.68137,-79.945046 q -4.61952,0 -9.23905,-1.026561 -4.53397,-0.941014 -7.95585,-2.651949 l 1.28321,-11.63436 q 8.72577,4.790619 16.59607,4.790619 4.10624,0 6.416,-1.625389 2.30977,-1.710935 2.30977,-4.790618 0,-2.309763 -1.19766,-3.935156 -1.11211,-1.71093 -3.67851,-3.25077 -2.48085,-1.62539 -7.18593,-3.76406 -7.61366,-3.42187 -11.12107,-7.27147 -3.42188,-3.84961 -3.42188,-10.09452 0,-4.96171 2.39531,-8.81132 2.39531,-3.8496 6.92929,-5.98827 4.53398,-2.22422 10.77889,-2.22422 7.78476,0 15.56951,3.50742 l -1.1121,11.29217 q -4.36289,-2.13867 -8.0414,-3.16523 -3.59296,-1.11211 -7.27147,-1.11211 -3.93515,0 -6.07382,1.53985 -2.05313,1.53984 -2.05313,4.53397 0,2.30977 1.36875,3.93516 1.36875,1.53984 3.33633,2.73749 2.05312,1.11211 7.35702,3.59297 7.61366,3.67851 11.03553,7.6992 3.50742,4.0207 3.50742,10.351162 0,7.955849 -5.475,12.660921 -5.47499,4.705071 -15.05623,4.705071 z"
           style="font-style:normal;font-variant:normal;font-weight:bold;font-stretch:condensed;font-family:'Cabin Condensed';-inkscape-font-specification:'Cabin Condensed,  Bold Condensed';fill:#f9f9f9;fill-opacity:1;stroke-width:0.64160073"
           id="path943" />
        <path
           d="m -322.01112,-79.945046 q -7.52812,0 -13.51639,-3.764057 -5.98827,-3.849604 -9.49569,-10.864439 -3.42187,-7.100378 -3.42187,-16.510528 0,-9.41014 3.42187,-16.42497 3.42187,-7.10039 9.49569,-10.86444 6.07382,-3.84961 13.68748,-3.84961 7.35702,0 13.43084,2.82305 l -1.19765,10.4367 q -3.16523,-1.36875 -5.56054,-2.05312 -2.39531,-0.68438 -5.3039,-0.68438 -7.78476,0 -12.14764,5.475 -4.36289,5.47499 -4.36289,15.14177 0,9.66679 4.36289,15.14178 4.36288,5.474993 12.06209,5.474993 2.99414,0 5.38945,-0.684374 2.39531,-0.684374 5.56054,-2.053122 l 1.19765,10.436704 q -5.64608,2.823043 -13.60193,2.823043 z"
           style="font-style:normal;font-variant:normal;font-weight:bold;font-stretch:condensed;font-family:'Cabin Condensed';-inkscape-font-specification:'Cabin Condensed,  Bold Condensed';fill:#f9f9f9;fill-opacity:1;stroke-width:0.64160073"
           id="path945" />
        <path
           d="m -301.05231,-141.02543 h 10.4367 v 59.88273 h -10.4367 z"
           style="font-style:normal;font-variant:normal;font-weight:bold;font-stretch:condensed;font-family:'Cabin Condensed';-inkscape-font-specification:'Cabin Condensed,  Bold Condensed';fill:#f9f9f9;fill-opacity:1;stroke-width:0.64160073"
           id="path947" />
        <path
           d="m -279.83682,-141.02543 h 33.61987 v 9.58123 h -23.18317 v 14.11522 h 17.87927 v 9.58124 h -17.87927 v 17.023803 h 23.95309 v 9.581237 h -34.38979 z"
           style="font-style:normal;font-variant:normal;font-weight:bold;font-stretch:condensed;font-family:'Cabin Condensed';-inkscape-font-specification:'Cabin Condensed,  Bold Condensed';fill:#f9f9f9;fill-opacity:1;stroke-width:0.64160073"
           id="path949" />
        <path
           d="m -237.3201,-141.02543 h 10.69334 l 19.84685,37.46948 v -37.46948 h 10.43671 v 59.88273 h -9.15351 l -21.38669,-39.86479 v 39.86479 h -10.4367 z"
           style="font-style:normal;font-variant:normal;font-weight:bold;font-stretch:condensed;font-family:'Cabin Condensed';-inkscape-font-specification:'Cabin Condensed,  Bold Condensed';fill:#f9f9f9;fill-opacity:1;stroke-width:0.64160073"
           id="path951" />
        <path
           d="m -161.69694,-79.945046 q -7.52812,0 -13.51639,-3.764057 -5.98828,-3.849604 -9.49569,-10.864439 -3.42187,-7.100378 -3.42187,-16.510528 0,-9.41014 3.42187,-16.42497 3.42187,-7.10039 9.49569,-10.86444 6.07382,-3.84961 13.68748,-3.84961 7.35702,0 13.43084,2.82305 l -1.19765,10.4367 q -3.16523,-1.36875 -5.56054,-2.05312 -2.39531,-0.68438 -5.3039,-0.68438 -7.78476,0 -12.14764,5.475 -4.36289,5.47499 -4.36289,15.14177 0,9.66679 4.36289,15.14178 4.36288,5.474993 12.06209,5.474993 2.99414,0 5.38945,-0.684374 2.39531,-0.684374 5.56054,-2.053122 l 1.19765,10.436704 q -5.64609,2.823043 -13.60193,2.823043 z"
           style="font-style:normal;font-variant:normal;font-weight:bold;font-stretch:condensed;font-family:'Cabin Condensed';-inkscape-font-specification:'Cabin Condensed,  Bold Condensed';fill:#f9f9f9;fill-opacity:1;stroke-width:0.64160073"
           id="path953" />
        <path
           d="m -140.22485,-141.02543 h 33.61987 v 9.58123 h -23.18317 v 14.11522 h 17.87927 v 9.58124 h -17.87927 v 17.023803 h 23.95309 v 9.581237 h -34.38979 z"
           style="font-style:normal;font-variant:normal;font-weight:bold;font-stretch:condensed;font-family:'Cabin Condensed';-inkscape-font-specification:'Cabin Condensed,  Bold Condensed';fill:#f9f9f9;fill-opacity:1;stroke-width:0.64160073"
           id="path955" />
        <path
           d="m -81.197694,-141.02543 h 10.436704 v 50.301493 h 20.189036 v 9.581237 h -30.62574 z"
           style="font-style:normal;font-variant:normal;font-weight:bold;font-stretch:condensed;font-family:'Cabin Condensed';-inkscape-font-specification:'Cabin Condensed,  Bold Condensed';fill:#f9f9f9;fill-opacity:1;stroke-width:0.64160073"
           id="path957" />
        <path
           d="m -18.663146,-95.429009 h -17.023806 l -4.106244,14.286309 h -10.436705 l 18.22146,-59.88273 h 9.581237 l 18.307007,59.88273 h -10.436705 z m -2.737497,-9.581241 -5.817179,-20.27458 -5.731633,20.27458 z"
           style="font-style:normal;font-variant:normal;font-weight:bold;font-stretch:condensed;font-family:'Cabin Condensed';-inkscape-font-specification:'Cabin Condensed,  Bold Condensed';fill:#f9f9f9;fill-opacity:1;stroke-width:0.64160073"
           id="path959" />
        <path
           d="m 30.868398,-113.56492 q 9.923424,3.8496 9.923424,15.398414 0,8.041396 -4.533978,12.575374 -4.533979,4.448432 -12.489827,4.448432 H 1.3547654 v -59.88273 H 21.372707 q 7.357022,0 10.949986,3.67851 3.67851,3.67851 3.67851,10.77889 0,9.1535 -5.132805,13.00311 z m -19.076928,-3.76406 h 7.699209 q 3.16523,0 4.705071,-1.71094 1.539842,-1.71093 1.539842,-5.30389 0,-3.76406 -1.539842,-5.38945 -1.539841,-1.71094 -4.705071,-1.71094 H 11.79147 Z m 10.094518,26.605043 q 3.935151,0 5.988273,-1.882029 2.138669,-1.967576 2.138669,-6.587101 0,-4.790623 -2.224216,-6.758193 -2.138669,-1.96758 -5.902726,-1.96758 H 11.79147 v 17.194903 z"
           style="font-style:normal;font-variant:normal;font-weight:bold;font-stretch:condensed;font-family:'Cabin Condensed';-inkscape-font-specification:'Cabin Condensed,  Bold Condensed';fill:#f9f9f9;fill-opacity:1;stroke-width:0.64160073"
           id="path961" />
      </g>
    </g>
    <flowRoot
       xml:space="preserve"
       id="flowRoot869"
       style="font-style:normal;font-variant:normal;font-weight:normal;font-stretch:normal;font-size:133.33332825px;line-height:1.25;font-family:ABeeZee;-inkscape-font-specification:ABeeZee;letter-spacing:0px;word-spacing:0px;fill:#000000;fill-opacity:1;stroke:none"
       transform="matrix(0.26458333,0,0,0.26458333,-774.00032,-260.07711)"><flowRegion
         id="flowRegion871"><rect
           id="rect873"
           width="24.243662"
           height="1090.9647"
           x="5563.9204"
           y="1806.1119" /></flowRegion><flowPara
         id="flowPara875"></flowPara></flowRoot>  </g>
</svg>
